<svg xmlns="http://www.w3.org/2000/svg" width="199" height="253" viewBox="0 0 199 253" version="1.1"><path d="M 92.244 6.732 C 85.863 18.786, 84.333 30.841, 87.877 41.143 C 88.909 44.144, 92.023 50.626, 94.796 55.549 C 103.982 71.856, 104.471 73.586, 104.382 89.500 C 104.315 101.367, 103.913 104.871, 101.739 112.500 C 100.329 117.450, 99.316 121.643, 99.489 121.818 C 100.165 122.504, 109.139 108.934, 111.421 103.774 C 116.686 91.869, 117.248 78.175, 112.950 66.499 C 111.736 63.199, 107.642 55.247, 103.854 48.826 C 100.065 42.406, 96.257 35.206, 95.391 32.826 C 93.553 27.776, 93.336 13.926, 94.980 6.590 C 95.578 3.920, 95.895 1.561, 95.683 1.349 C 95.471 1.138, 93.924 3.560, 92.244 6.732 M 75.038 38.250 C 73.813 41.138, 72.573 46.224, 72.284 49.553 C 71.702 56.252, 72.618 58.700, 79.958 70.057 C 84.927 77.745, 86.363 84.153, 85.833 96.278 C 85.473 104.512, 85.603 105.585, 86.760 103.933 C 89.941 99.391, 93.239 90.453, 93.730 85.045 C 94.429 77.331, 92.511 71.908, 85.059 60.526 C 78.391 50.343, 76.512 44.735, 77.435 37.775 C 77.784 35.149, 77.888 33, 77.668 33 C 77.447 33, 76.264 35.362, 75.038 38.250 M 61 94.490 C 39.828 98.116, 27.284 103.684, 23.410 111.174 C 22.306 113.309, 21.654 118.247, 21.272 127.378 C 20.389 148.426, 24.257 166.312, 33.437 183.622 L 37.743 191.743 31.708 193.421 C 16.223 197.727, 3.194 206.852, 1.024 214.911 C -4.348 234.861, 29.089 250.127, 83.500 252.565 C 117.067 254.070, 151.308 248.645, 170.203 238.828 C 196.742 225.040, 191.158 204.957, 157.750 194.042 C 154.037 192.829, 151.007 191.536, 151.015 191.168 C 151.060 189.213, 153.051 188.168, 158 187.502 C 180.027 184.537, 195.027 171.517, 197.908 152.863 C 200.020 139.188, 194.935 129.632, 183.616 126.002 C 179.941 124.823, 171.390 125.145, 167.585 126.606 C 166.246 127.120, 166 126.276, 166 121.172 C 166 117.849, 165.555 113.959, 165.010 112.527 C 162.367 105.574, 150.176 99.159, 132.887 95.624 L 126.500 94.319 125.293 98.369 C 124.630 100.597, 124.180 102.468, 124.293 102.526 C 124.407 102.584, 129.418 103.824, 135.428 105.282 C 146.710 108.018, 155.220 112.188, 155.814 115.272 C 156.649 119.610, 144.506 125.175, 126.500 128.707 C 114.953 130.971, 75.568 131.237, 64 129.129 C 44.629 125.598, 31.557 120.092, 32.188 115.729 C 32.892 110.857, 47.751 104.911, 64.512 102.794 C 73.665 101.638, 73.837 101.566, 74.413 98.684 C 75.702 92.240, 75.147 92.067, 61 94.490 M 31.260 139.662 C 31.657 148.330, 32.516 153.910, 34.467 160.500 C 44.455 194.235, 67.355 215.034, 94.460 214.988 C 127.601 214.932, 154.257 182.477, 156.677 139.235 L 157.308 127.970 151.733 130.522 C 140.297 135.758, 114.745 140, 94.645 140 C 73.370 140, 45.820 135.476, 35.622 130.308 L 30.718 127.824 31.260 139.662 M 169.801 136.145 C 167.542 136.972, 167.005 137.895, 166.505 141.816 C 164.765 155.449, 162.104 166.747, 158.295 176.675 C 156.858 180.419, 172.659 174.109, 178.948 168.428 C 185.326 162.666, 188.394 155.966, 188.452 147.670 C 188.498 141.195, 188.331 140.689, 185.234 137.920 C 182.556 135.525, 181.117 135.014, 177.234 135.079 C 174.630 135.122, 171.286 135.602, 169.801 136.145 M 38.196 201.629 C 23.795 205.315, 10 213.672, 10 218.710 C 10 223.212, 16.580 228.673, 27 232.819 C 65.934 248.313, 144.090 245.520, 170.729 227.683 C 176.921 223.537, 178.639 220.137, 176.568 216.132 C 174.142 211.441, 161.666 204.777, 149.333 201.584 L 144.500 200.333 137.145 207.170 C 123.111 220.215, 104.726 226.532, 87.498 224.227 C 72.394 222.206, 61.819 217.157, 50.131 206.386 L 43.497 200.273 38.196 201.629" stroke="none" fill="#080808" fill-rule="evenodd"/></svg>