<?xml version="1.0" standalone="no"?>
<!DOCTYPE svg PUBLIC "-//W3C//DTD SVG 20010904//EN"
 "http://www.w3.org/TR/2001/REC-SVG-20010904/DTD/svg10.dtd">
<svg version="1.0" xmlns="http://www.w3.org/2000/svg" width="512.000000pt" height="512.000000pt" viewBox="0 0 512.000000 512.000000" preserveAspectRatio="xMidYMid meet"> <g transform="translate(0.000000,512.000000) scale(0.100000,-0.100000)" fill="#000000" stroke="none"> <path d="M787 3616 c-86 -31 -136 -96 -145 -187 -9 -99 -48 -55 902 -1007 527 -529 897 -892 921 -905 53 -28 135 -28 190 1 48 25 1766 1742 1788 1787 53 107 8 238 -97 286 -51 23 -136 24 -179 3 -18 -9 -386 -370 -819 -802 l-788 -787 -802 802 c-693 691 -808 803 -843 812 -52 14 -81 13 -128 -3z"/> </g></svg>
