<svg xmlns="http://www.w3.org/2000/svg" width="100" height="100" viewBox="0 0 100 100" version="1.1"><path d="" stroke="none" fill="#080404" fill-rule="evenodd"/><path d="M 41.174 7.291 C 40.584 8.001, 39.617 10.747, 39.024 13.393 C 37.656 19.496, 36.815 21.079, 27.683 34.735 C 14.410 54.585, 12.888 65.768, 21.691 78.759 C 27.673 87.585, 40.537 95.388, 45.090 92.952 C 47.860 91.470, 47.455 89.349, 43.525 84.758 C 36.205 76.207, 35.375 68.059, 41.153 61.479 C 44.332 57.857, 46.356 56.909, 45.359 59.508 C 43.905 63.296, 46.210 68.392, 52.200 74.630 C 55.526 78.093, 59.692 83.756, 61.457 87.214 C 63.223 90.671, 65.396 93.641, 66.287 93.814 C 68.750 94.292, 76.297 86.743, 79.304 80.794 C 84.703 70.113, 84.876 60.593, 79.974 44 C 76.337 31.692, 72.515 29.607, 68.918 37.969 C 66.046 44.644, 64.260 46.093, 63.531 42.338 C 61.354 31.137, 54.340 16.684, 47.626 9.564 C 43.988 5.708, 42.827 5.298, 41.174 7.291" stroke="none" fill="#040404" fill-rule="evenodd"/></svg>