<svg xmlns="http://www.w3.org/2000/svg" width="512" height="512" viewBox="0 0 512 512" version="1.1"><path d="" stroke="none" fill="#080404" fill-rule="evenodd"/><path d="M 117.477 40.923 C 86.619 45.858, 62.318 67.994, 54.857 97.963 C 52.070 109.157, 52.604 128.006, 55.991 137.967 C 66.475 168.799, 91.899 188.798, 123.022 190.694 C 138.956 191.665, 157.032 187.118, 167.815 179.428 C 167.988 179.304, 168.771 176.455, 169.555 173.096 C 173.559 155.932, 182.193 140.586, 195.137 127.629 L 203 119.758 203 112.539 C 203 87.129, 185.982 60.577, 161.935 48.467 C 149.021 41.964, 130.558 38.831, 117.477 40.923 M 372.831 40.955 C 347.955 45.516, 327.694 60.229, 316.996 81.500 C 312.491 90.457, 309 102.918, 309 110.040 C 309 114.606, 309.184 114.899, 314.650 119.025 C 332.171 132.254, 345.195 151.996, 349.597 172 C 352.316 184.352, 352.186 184.111, 357.223 186.090 C 371.703 191.778, 391.435 192.379, 406.500 187.590 C 430.100 180.089, 447.677 162.471, 456.009 137.967 C 459.396 128.006, 459.930 109.157, 457.143 97.963 C 450.504 71.297, 430.243 50.409, 403.821 42.991 C 395.611 40.686, 379.920 39.655, 372.831 40.955 M 241.784 119.979 C 214.438 126.927, 192.870 148.632, 186.343 175.770 C 184.006 185.490, 184.228 202.436, 186.819 212.136 C 193.800 238.260, 214.863 259.311, 240.864 266.148 C 246.369 267.596, 251.710 268.158, 260 268.165 C 281.184 268.181, 297.634 261.301, 313.138 245.943 C 320.639 238.513, 322.442 236.012, 326.839 226.943 C 333.419 213.370, 335.466 203.529, 334.722 189.046 C 333.075 156.970, 312.704 130.927, 281.500 121.003 C 271.338 117.772, 252.393 117.283, 241.784 119.979 M 87.155 196.106 C 48.184 199.571, 15.320 226.851, 3.292 265.718 L 0.574 274.500 0.228 323.065 L -0.119 371.630 18.690 376.828 C 49.461 385.332, 74.477 390.075, 100.750 392.389 L 114 393.556 114.017 380.528 C 114.061 347.987, 119.140 328.918, 133.602 307 C 143.375 292.188, 155.842 280.418, 171.500 271.220 C 178.174 267.299, 192.611 261, 194.923 261 C 195.523 261, 193.274 257.738, 189.926 253.750 C 176.781 238.095, 170.878 223.847, 167.403 199.387 C 166.987 196.457, 166.653 196.237, 161.730 195.646 C 154.362 194.761, 98.401 195.106, 87.155 196.106 M 352.589 196.250 C 352.397 196.938, 351.732 201.375, 351.111 206.111 C 350.491 210.847, 349.049 217.597, 347.907 221.111 C 343.872 233.533, 334.519 249.414, 327.102 256.437 C 325.396 258.052, 324 259.704, 324 260.107 C 324 260.510, 326.363 261.607, 329.250 262.545 C 332.137 263.483, 338.542 266.319, 343.481 268.846 C 375.164 285.057, 397.315 315.191, 403.463 350.446 C 404.450 356.109, 405 365.502, 405 376.711 L 405 394.160 415.250 393.490 C 448.267 391.333, 487.090 382.546, 506.179 372.910 L 512.122 369.909 511.773 322.205 L 511.423 274.500 508.707 265.718 C 496.410 225.964, 464.040 199.644, 423 196.030 C 405.677 194.504, 353.030 194.669, 352.589 196.250 M 211.500 274.467 C 168.415 282.383, 136.229 317.255, 132.016 360.585 C 130.511 376.055, 130.701 447.523, 132.250 448.728 C 133.791 449.927, 158.784 457.104, 173 460.430 C 247.848 477.938, 326.198 474.643, 378.811 451.775 L 388.123 447.728 387.760 400.614 C 387.341 346.276, 387.363 346.433, 377.475 326.500 C 363.965 299.266, 340.241 281.163, 309.979 274.996 C 301.085 273.183, 296.436 273.008, 259.343 273.090 C 230.709 273.154, 216.407 273.565, 211.500 274.467" stroke="none" fill="#040404" fill-rule="evenodd"/></svg>